# File created by Blade
# Date/Time:  Tue Jan 27 19:14:06 2015
# Frame Rate: 120.000 fps
#------------------------------------------------------
:FULLY-SPECIFIED
:DEGREES
3662
root 3.803968 32.411154 1.149647 -4.704761 2.124694 0.535225
Spine -1.300985 2.337878 -1.982765
Head 16.094869 -19.103132 -4.028455
LeftShoulder -6.770581 -6.853041 24.605965
LeftArm -7.590070 36.141233 -106.309732
LeftForeArm 6.135660 -0.000000 11.369229
LeftHand 9.656685 -0.000000 -5.492318
LeftHandThumb1 -26.253704 0.000000 33.147579
RightShoulder -19.588026 10.186546 -63.890267
RightArm 48.237486 58.808516 41.947487
RightForeArm 3.413648 -0.000000 16.312647
RightHand 20.701513 -0.000000 -14.790726
RightHandThumb1 -24.326973 -0.000000 -32.862282
LeftUpLeg 11.891003 -1.426299 -0.342739
LeftLeg 1.614105 -0.000000 -0.000000
LeftFoot -16.085098 9.985181 -22.456004
LeftToeBase 18.505018 -0.000000 -0.000000
RightUpLeg 11.084967 -0.852085 3.841930
RightLeg 0.260188 -0.000000 -0.000000
RightFoot -12.277943 -14.558467 13.462246
RightToeBase 11.904392 -0.000000 -0.000000
3663
root 3.811840 32.412019 1.146688 -4.703866 2.224767 0.560571
Spine -1.258510 2.257362 -1.952685
Head 16.088556 -19.019190 -4.063763
LeftShoulder -6.787981 -6.806178 24.586779
LeftArm -7.540003 36.142455 -106.273531
LeftForeArm 6.098403 -0.000000 11.383995
LeftHand 9.614857 -0.000000 -5.452413
LeftHandThumb1 -26.253704 0.000000 33.147579
RightShoulder -19.640922 10.184626 -63.923759
RightArm 48.222127 58.811736 41.801389
RightForeArm 3.390047 -0.000000 16.375067
RightHand 20.633294 -0.000000 -14.778840
RightHandThumb1 -24.326973 -0.000000 -32.862282
LeftUpLeg 11.878377 -1.531100 -0.390027
LeftLeg 1.598935 -0.000000 -0.000000
LeftFoot -16.053687 9.988237 -22.489706
LeftToeBase 18.456005 -0.000000 -0.000000
RightUpLeg 11.106646 -0.856291 3.812408
RightLeg 0.231321 -0.000000 -0.000000
RightFoot -12.297714 -14.637700 13.484452
RightToeBase 11.856433 -0.000000 -0.000000
3664
root 3.818544 32.412461 1.143251 -4.695809 2.335567 0.579921
Spine -1.227360 2.173590 -1.922188
Head 16.115535 -18.962193 -4.095450
LeftShoulder -6.785755 -6.788032 24.568705
LeftArm -7.523068 36.132270 -106.251623
LeftForeArm 6.136720 -0.000000 11.393010
LeftHand 9.598520 -0.000000 -5.401695
LeftHandThumb1 -26.253704 0.000000 33.147579
RightShoulder -19.690671 10.169634 -63.953515
RightArm 48.338859 58.880462 41.812827
RightForeArm 3.347876 -0.000000 16.422976
RightHand 20.598044 -0.000000 -14.828790
RightHandThumb1 -24.326973 -0.000000 -32.862282
LeftUpLeg 11.862441 -1.563307 -0.411071
LeftLeg 1.567884 -0.000000 -0.000000
LeftFoot -15.985165 9.915921 -22.496602
LeftToeBase 18.480111 -0.000000 -0.000000
RightUpLeg 11.119466 -0.849838 3.795491
RightLeg 0.199754 -0.000000 -0.000000
RightFoot -12.326710 -14.750689 13.518060
RightToeBase 11.883954 -0.000000 -0.000000
3665
root 3.826080 32.412636 1.139413 -4.684220 2.457927 0.598126
Spine -1.201732 2.067929 -1.881745
Head 16.147714 -18.900648 -4.145249
LeftShoulder -6.779432 -6.845120 24.543421
LeftArm -7.596851 36.145349 -106.283840
LeftForeArm 6.120212 -0.000000 11.379850
LeftHand 9.588812 0.000000 -5.367422
LeftHandThumb1 -26.253704 0.000000 33.147579
RightShoulder -19.739721 10.177744 -64.011169
RightArm 48.593146 59.001671 42.021379
RightForeArm 3.343182 -0.000000 16.473182
RightHand 20.658411 -0.000000 -14.830726
RightHandThumb1 -24.326973 -0.000000 -32.862282
LeftUpLeg 11.841563 -1.612419 -0.435217
LeftLeg 1.536676 -0.000000 -0.000000
LeftFoot -15.929746 9.875436 -22.429558
LeftToeBase 18.524953 -0.000000 -0.000000
RightUpLeg 11.128692 -0.851478 3.777420
RightLeg 0.171350 -0.000000 -0.000000
RightFoot -12.360172 -14.861330 13.562614
RightToeBase 11.843003 -0.000000 -0.000000
3666
root 3.833670 32.412751 1.136076 -4.674418 2.570318 0.617892
Spine -1.183111 1.975268 -1.854973
Head 16.195858 -18.861398 -4.172989
LeftShoulder -6.765636 -6.864107 24.524006
LeftArm -7.625435 36.161257 -106.297528
LeftForeArm 6.142653 -0.000000 11.343110
LeftHand 9.631232 -0.000000 -5.346143
LeftHandThumb1 -26.253704 0.000000 33.147579
RightShoulder -19.758889 10.161244 -64.026380
RightArm 48.824818 59.158919 42.208578
RightForeArm 3.384401 -0.000000 16.565324
RightHand 20.649461 -0.000000 -14.878054
RightHandThumb1 -24.326973 -0.000000 -32.862282
LeftUpLeg 11.821231 -1.627509 -0.456081
LeftLeg 1.510493 -0.000000 -0.000000
LeftFoot -15.856782 9.803281 -22.400310
LeftToeBase 18.483770 -0.000000 -0.000000
RightUpLeg 11.134545 -0.823803 3.762661
RightLeg 0.154380 -0.000000 -0.000000
RightFoot -12.398169 -14.983026 13.585702
RightToeBase 11.844469 -0.000000 -0.000000
3667
root 3.841232 32.413383 1.133307 -4.668683 2.674124 0.635833
Spine -1.163591 1.891295 -1.827744
Head 16.247691 -18.877896 -4.201796
LeftShoulder -6.766561 -6.885737 24.500394
LeftArm -7.647669 36.226605 -106.315333
LeftForeArm 6.212445 0.000000 11.265058
LeftHand 9.561483 -0.000000 -5.002270
LeftHandThumb1 -26.253704 0.000000 33.147579
RightShoulder -19.781670 10.178533 -64.045252
RightArm 49.092561 59.308701 42.442607
RightForeArm 3.343913 -0.000000 16.652951
RightHand 20.642890 -0.000000 -14.941236
RightHandThumb1 -24.326973 -0.000000 -32.862282
LeftUpLeg 11.808586 -1.681211 -0.485761
LeftLeg 1.484688 -0.000000 -0.000000
LeftFoot -15.806883 9.786614 -22.350658
LeftToeBase 18.512715 -0.000000 -0.000000
RightUpLeg 11.139299 -0.817837 3.743455
RightLeg 0.148014 -0.000000 -0.000000
RightFoot -12.430525 -15.078873 13.604236
RightToeBase 11.851025 -0.000000 -0.000000
